<svg width="955" height="945" viewBox="0 0 955 945" fill='yellow'
  xmlns="http://www.w3.org/2000/svg">
  <g clip-path="url(#clip0_1_2)">
    <path opacity="0.984314" d="M510.962 22.1133C512.308 22.582 512.746 23.9004 512.278 26.0684L503.5 55.9512L501.306 58.1484C499.726 57.4453 499.287 55.541 499.989 52.4355L508.767 27.8262V25.1895L510.962 22.1133Z" />
    <path opacity="0.984314" d="M464 49.3593C466.341 48.539 466.926 50.1504 465.756 54.1933L466.633 55.0722V62.9824H465.756L463.122 51.5566L464 49.3593Z" />
    <path opacity="0.984314" d="M317.848 51.1172L321.798 54.1934L327.065 65.6191V69.1348L335.843 102.533L334.087 102.973L329.698 94.623L316.532 55.9512V52.4355L317.848 51.1172Z" />
    <path opacity="0.984314" d="M304.242 74.8477H311.265V77.0449L313.02 79.6816L314.776 88.4707L313.02 87.5918L304.242 74.8477Z" />
    <path opacity="0.984314" d="M641.313 74.8477H647.019L648.336 76.166L637.363 89.7891L637.802 88.4707L641.313 74.8477Z" />
    <path opacity="0.984314" d="M443.372 75.7266L446.005 76.6055H467.511L471.022 90.2285L475.85 101.215L480.678 91.9863L484.189 77.9238L485.506 76.6055H506.573L509.206 75.7266L510.084 76.6055H522.373L523.251 77.4844L552.218 79.2422L553.096 80.1211L569.773 81.8789L590.84 88.0312L601.374 94.1836L606.202 99.0176C608.308 103.061 608.894 108.627 607.957 115.717C606.67 116.42 606.377 118.178 607.079 120.99L608.396 120.551L618.93 116.156H625.074C633.618 118.441 640.201 122.689 644.824 128.9L642.191 130.219V131.537L633.852 139.887L622.88 148.236L625.952 148.676L648.774 140.766L659.747 139.008L660.625 142.084L675.547 157.025L702.758 190.424L722.509 222.504L728.653 219.867L738.309 218.988L739.187 219.867H746.209L760.254 224.262C766.398 227.191 771.518 231.146 775.615 236.127C779.945 241.166 783.164 247.318 785.271 254.584C786.792 259.213 787.085 265.072 786.148 272.162C783.281 283.646 778.16 292.875 770.787 299.848L762.009 306L754.987 308.637H750.598L749.281 309.955C762.097 325.541 772.923 343.119 781.759 362.689L796.682 399.603L798.437 405.756V415.424L793.171 425.971L769.47 454.096L770.787 454.535L797.121 439.594L804.143 438.715L808.971 442.67L820.382 472.553L830.038 504.193L826.088 509.027L820.821 511.664L800.632 514.301L798.437 515.619L827.843 521.332L831.793 525.287L830.916 527.484L815.554 535.395L808.093 537.592C818.217 542.982 826.702 550.014 833.549 558.686L837.938 565.717L839.693 580.658L840.571 581.537V588.568L841.449 589.447V622.846L836.182 650.092L830.038 672.064L815.115 706.342L807.654 716.449L797.998 718.207L769.909 704.144L769.47 705.463L781.759 726.557L789.659 742.377V745.014L777.809 758.637L753.231 778.852C736.261 790.863 718.12 801.703 698.808 811.371L641.752 835.102L611.907 844.769L596.985 848.285L593.035 850.482C588.412 868.998 579.78 883.5 567.14 893.988L560.118 898.383H553.096L545.634 883.881L541.245 866.303L540.368 857.074H527.64L526.762 857.953H487.261L485.506 857.074L481.995 857.953L480.239 857.074C479.244 858.715 476.903 859.008 473.217 857.953L471.461 857.074L467.95 857.953H464.439H425.816L424.938 857.074H412.21L407.822 880.365L401.677 895.307L398.605 898.383C394.099 899.086 390.88 898.5 388.949 896.625L374.466 883.002L363.932 865.424L359.543 850.482L358.227 849.164L340.671 844.769L308.193 834.223L263.425 815.766L243.236 806.098L202.858 781.488C189.164 772.055 176.729 761.361 165.552 749.408C163.445 748.295 162.567 745.951 162.919 742.377L183.108 704.144L164.235 713.812L158.53 714.691L157.213 717.328L152.824 718.207C151.946 716.742 149.898 716.449 146.68 717.328L142.729 714.252L133.952 700.189L119.907 664.154L116.396 650.971L114.64 637.787L112.007 630.756L110.251 603.51L111.129 602.631V587.689L112.007 586.811L113.762 568.353C116.571 560.912 120.814 554.906 126.49 550.336C131.64 545.238 137.638 540.99 144.485 537.592C135.005 535.365 127.105 531.557 120.785 526.166L121.663 523.09L124.735 521.332L135.268 518.695L154.141 515.619L151.946 514.301L131.757 511.664L123.418 507.27L122.54 502.436L140.096 450.58L143.607 442.67L147.557 438.715H152.824L157.213 440.473L182.669 454.535L177.841 448.822L158.53 425.092L154.141 416.303L153.263 409.271L159.407 389.057L176.963 349.506C184.512 335.092 193.29 321.908 203.297 309.955L201.98 308.637H197.591L188.813 305.121L176.963 295.014L168.185 279.193L165.552 265.131L166.43 264.252L167.308 253.705L170.819 244.916C173.92 239.232 177.87 234.398 182.669 230.414C190.979 223.207 202.682 219.398 217.78 218.988C218.658 220.453 220.706 220.746 223.925 219.867L230.069 222.504L248.942 191.303L275.275 158.783L291.076 142.963L292.831 139.008H297.659L323.115 147.797L329.259 148.676L328.382 146.918L311.265 133.734L308.193 129.34L306.876 128.9C311.44 124.096 316.853 120.141 323.115 117.035L333.648 116.156L345.06 121.43L345.499 117.475L344.621 116.596V103.412L348.571 95.9414L361.738 88.0312L382.805 81.8789L399.483 80.1211L400.36 79.2422H407.383L408.26 78.3633L442.494 76.6055L443.372 75.7266ZM460.489 91.5469L450.833 93.3047H435.911L435.033 94.1836H426.255L425.377 95.0625H409.577L408.699 95.9414H397.288L396.41 96.8203L384.121 97.6992L370.954 101.215L358.665 107.367L360.421 124.066L364.81 138.129L367.443 154.828L329.698 133.734L324.432 136.371L331.454 140.766L340.232 152.191C341.987 152.777 341.695 153.656 339.354 154.828H327.943L314.776 152.191H307.754L306.876 151.312L297.22 159.223C285.516 169.77 275.568 182.074 267.375 196.137C260.353 207.27 255.086 220.453 251.575 235.687V236.566C261.523 228.363 273.52 221.625 287.565 216.352L308.631 210.199L318.287 209.32L319.165 208.441H327.065L327.943 207.562L359.543 208.441L380.61 212.836L391.144 216.352C408.114 222.797 422.744 231.879 435.033 243.598C443.811 252.387 451.126 262.934 456.978 275.238L462.244 291.059L463.122 301.605L464 302.484V312.152L466.633 320.062L471.9 317.426C478.922 316.254 483.897 317.133 486.822 320.062L485.945 318.305L486.822 296.332L491.211 280.512C495.893 267.621 502.623 257.074 511.401 248.871C523.104 235.98 537.734 226.02 555.29 218.988L577.235 211.957L591.279 209.32H599.179L600.057 208.441L631.658 209.32L652.724 213.715L673.791 221.625C683.154 225.727 691.347 231 698.37 237.445L701.881 238.324C695.444 211.371 684.032 189.398 667.647 172.406L646.58 151.312L631.658 153.949H625.513L624.635 154.828H614.102L611.468 153.949L614.102 148.676L628.146 136.371L625.513 133.734C610.883 139.594 597.716 146.625 586.013 154.828L584.257 153.07L592.157 123.187L593.913 107.367L579.868 100.336L569.335 97.6992L557.046 96.8203L556.168 95.9414H544.757L543.879 95.0625H528.079L527.201 94.1836H518.423L517.545 93.3047H502.623L501.745 92.4258L490.334 91.5469L480.678 113.52L478.045 116.156L477.167 115.277L475.411 116.156L472.778 115.277L464.878 97.6992L464 93.3047C463.415 91.5469 462.244 90.9609 460.489 91.5469ZM201.541 246.234L199.786 247.113C197.445 247.699 196.275 249.457 196.275 252.387L220.853 272.602L223.486 274.359L230.508 275.238C231.679 269.965 230.801 266.156 227.875 263.812L205.93 247.113L201.541 246.234ZM746.648 247.113L725.581 261.176L719.436 269.086V276.117L727.336 275.238L749.281 257.66L753.67 253.266V251.508C752.5 248.578 750.159 247.113 746.648 247.113ZM356.91 253.266L347.254 255.023L334.087 259.418C324.724 263.52 316.824 268.5 310.387 274.359C301.609 281.977 294.587 291.059 289.32 301.605L284.053 320.941V342.035L287.565 357.855C292.246 370.746 298.683 382.172 306.876 392.133C313.313 399.75 321.506 406.195 331.454 411.469L347.254 417.621L360.421 420.258H377.977L387.632 418.5C401.092 414.398 412.503 408.246 421.866 400.043C429.474 393.012 435.911 385.102 441.177 376.312L448.2 360.492L452.589 338.52C453.759 312.738 447.907 293.988 435.033 282.27C425.085 271.137 412.796 262.934 398.166 257.66L379.732 253.266H356.91ZM573.724 253.266C553.242 256.781 536.856 264.105 524.567 275.238L509.645 291.937L503.5 305.121L499.989 322.699V340.277L502.623 355.219C506.719 368.109 512.571 379.535 520.178 389.496C527.201 397.113 535.393 403.852 544.757 409.711L559.679 416.742L575.479 420.258H593.035L606.202 417.621L620.246 412.348L637.802 400.043C653.602 385.98 663.843 366.352 668.525 341.156V321.82L664.136 304.242C660.039 294.867 654.773 286.957 648.336 280.512C639.558 271.137 629.024 263.812 616.735 258.539L596.546 253.266H573.724ZM732.603 309.516V319.184L733.481 320.062V341.156L728.214 364.008C722.362 378.656 714.755 391.84 705.392 403.559C694.858 415.277 682.569 425.238 668.525 433.441L648.336 442.23L635.169 445.746L626.391 447.504H619.369L618.491 448.383H595.668L571.968 443.988C554.997 438.715 540.66 431.098 528.956 421.137L521.934 414.984L519.301 407.953C512.864 400.336 507.597 391.547 503.5 381.586L495.6 362.25L485.945 330.609L478.922 326.215C474.241 325.629 471.022 326.508 469.267 328.852L465.756 332.367C461.074 350.531 455.222 367.523 448.2 383.344C443.518 393.891 437.666 403.559 430.644 412.348C420.696 422.309 408.992 430.512 395.533 436.957L378.855 443.109L355.154 447.504H332.332L331.454 446.625H324.432L302.487 441.352C285.516 435.492 271.179 427.289 259.475 416.742C247.186 406.781 237.238 394.77 229.631 380.707L219.975 357.855L216.464 340.277V319.184L217.341 318.305V313.031L206.808 324.457L181.352 360.492L161.163 407.074L167.308 420.258L198.03 456.293L206.808 470.355L207.686 472.992L206.808 475.629H204.175L191.008 470.355L155.018 451.898L152.385 455.414L138.341 500.238L147.118 501.117L185.741 515.18C186.911 514.594 187.204 515.18 186.619 516.937C177.841 522.211 167.015 525.141 154.141 525.727V526.605C155.311 526.02 155.604 526.605 155.018 528.363L171.696 535.395C172.867 534.809 173.159 535.395 172.574 537.152L170.819 538.91L149.752 549.457L134.829 560.883L126.929 570.551L125.174 586.371L124.296 587.25V593.402L123.418 594.281V632.953L124.296 633.832V645.258L137.463 678.656L152.385 703.266L155.896 705.023L159.407 704.144L169.063 697.113L193.641 683.93L198.03 682.172H202.419L205.93 688.324L184.863 725.238L176.963 743.695C189.837 755.414 203.882 766.254 219.097 776.215L249.82 794.672C260.938 801.117 273.52 806.684 287.565 811.371L288.442 812.25L287.565 808.734V769.184L288.442 768.305L289.32 752.484L290.198 751.605V742.816L299.854 701.508L309.509 676.019L322.676 649.652L341.987 620.648L357.788 603.07C358.958 603.656 359.251 603.363 358.665 602.191L361.299 600.434L363.054 596.918L383.243 581.098C387.34 579.926 390.558 577.875 392.899 574.945L422.744 560.004L441.177 555.609L442.933 553.852L447.322 552.973L458.733 552.094L459.611 551.215H472.778L473.656 550.336L502.623 552.094L512.278 553.852L514.034 555.609C516.96 555.023 519.301 555.609 521.056 557.367H524.567L535.101 560.883L538.612 563.52L551.779 568.793L573.724 582.855C574.894 582.27 575.187 582.855 574.601 584.613L577.235 585.492C578.405 584.906 578.698 585.492 578.112 587.25C581.624 587.836 584.257 589.594 586.013 592.523C587.183 591.937 587.476 592.523 586.89 594.281L597.424 602.191L605.324 612.738L607.957 613.617C616.735 624.75 624.928 636.762 632.535 649.652L644.824 674.262C646.58 681.879 649.213 688.617 652.724 694.477L653.602 701.508L655.358 704.144L661.502 726.996V733.148L665.891 756.879L666.769 781.488L667.647 782.367L666.769 808.734L665.891 809.613L666.769 811.371C708.318 794.379 744.6 771.82 775.615 743.695L765.081 720.844L746.648 689.203L749.281 682.172C753.378 681.586 756.889 682.172 759.815 683.93L782.637 696.234L792.293 703.266L797.56 705.023L806.337 694.477L817.749 672.504L828.282 644.379V632.074L829.16 631.195V596.918L828.282 596.039V588.129L825.649 575.824V570.551L823.893 567.914L808.971 552.973L781.759 538.031C780.004 538.617 779.419 537.738 780.004 535.395L799.315 526.605L781.759 523.09L771.226 519.574L765.081 516.059L806.337 501.117L814.238 500.238L801.071 458.051L798.437 451.898L756.304 472.992L744.892 475.629V471.234L753.67 457.172L785.271 420.258L791.415 408.832L785.271 391.254L769.47 357.855L744.892 323.578L732.603 309.516ZM461.367 563.52L460.489 564.398H453.467L439.422 567.035L419.233 574.066C415.722 576.996 411.333 579.047 406.066 580.219C390.266 589.008 376.221 599.555 363.932 611.859C364.517 613.031 364.225 613.324 363.054 612.738L340.232 639.105L322.676 667.23L315.654 682.172L305.998 707.66L298.976 734.027L298.098 745.453L294.587 763.91L293.709 785.004L292.831 785.883V804.34L293.709 805.219V814.887L331.454 828.949L377.977 842.133L387.632 843.891H394.655L395.533 844.769H410.455L411.333 845.648H424.5L425.377 846.527H441.177L442.055 847.406H454.344L455.222 846.527H498.234L499.112 847.406L528.079 846.527L528.956 845.648H542.123L543.001 844.769H557.923L558.801 843.891H565.823L575.479 842.133L613.224 831.586C629.024 826.898 643.947 821.332 657.991 814.887L655.358 807.855V774.457L654.48 773.578V763.91L653.602 763.031V751.605L643.947 707.66L630.78 673.383L622.002 657.562L611.468 640.863L592.157 617.133L590.402 615.375L586.89 610.98C585.135 611.566 584.55 611.273 585.135 610.102L573.724 599.555C571.968 600.141 571.383 599.555 571.968 597.797L548.268 581.977L532.467 574.066L512.278 567.035L498.234 564.398H492.089L491.211 563.52H461.367Z" />
    <path opacity="0.984314" d="M510.523 118.793C512.278 118.207 512.863 118.793 512.278 120.551C510.523 121.137 509.938 120.551 510.523 118.793Z" />
    <path opacity="0.984314" d="M549.145 135.492C551.077 134.73 551.662 135.756 550.901 138.568L550.023 139.447V153.51L549.145 154.389L550.023 156.586L552.218 157.465L564.068 158.344L564.946 160.541L562.751 163.617H560.118L550.901 168.451V180.756L551.779 181.635V187.348L549.145 186.029L541.684 173.285L522.373 183.832L521.934 182.514C527.201 178.119 531.297 172.553 534.223 165.814L528.517 158.344L525.445 156.146L526.762 153.07L539.929 154.828L548.268 139.447L549.145 135.492Z" />
    <path opacity="0.984314" d="M594.352 162.738C596.575 162.328 597.892 162.768 598.302 164.057L596.107 168.891C592.947 170.004 591.63 169.564 592.157 167.572L591.279 164.936L594.352 162.738Z" />
    <path opacity="0.984314" d="M216.025 168.891H217.78L230.947 182.074H232.264L233.142 187.348H230.069L223.486 182.514L213.83 171.967V169.77L216.025 168.891Z" />
    <path opacity="0.984314" d="M734.798 168.891L738.748 169.77L736.553 174.164C735.266 173.754 734.827 174.193 735.237 175.482L725.142 185.59L719.436 187.348C719.319 183.539 720.636 180.902 723.386 179.438L728.214 175.482L732.164 170.648L734.798 168.891Z" />
    <path opacity="0.984314" d="M305.12 170.648H311.704L312.143 171.967L309.948 175.043L308.193 175.922C305.676 175.16 304.652 173.402 305.12 170.648Z" />
    <path opacity="0.984314" d="M781.32 184.711C784.89 184.008 786.499 184.447 786.148 186.029L780.443 189.106L738.309 203.168L736.992 200.971L740.942 197.016L752.353 192.621L781.32 184.711Z" />
    <path opacity="0.984314" d="M462.244 201.41C464.936 200.707 466.692 201.147 467.511 202.729C468.096 205.951 467.365 207.856 465.317 208.441C462.976 208.734 461.659 208.002 461.367 206.244L462.244 201.41Z" />
    <path opacity="0.984314" d="M377.538 258.539L391.582 259.418L403.871 262.934C414.873 267.445 423.797 274.037 430.644 282.709C435.326 288.568 438.837 295.6 441.178 303.803L443.811 323.139L442.933 324.018L442.055 337.201L435.911 353.9C431.873 362.455 426.46 369.633 419.672 375.434C413.118 381.469 404.925 385.863 395.094 388.617L386.316 390.375H371.393C353.428 386.977 339.822 379.213 330.576 367.084C324.022 359.291 319.048 349.916 315.654 338.959L313.898 331.049V311.713C317.643 294.662 325.397 281.625 337.16 272.602L352.96 263.812L364.371 260.297L376.66 259.418L377.538 258.539ZM392.899 270.844L390.266 271.723L381.488 307.758L364.81 313.031L354.276 314.789L349.01 318.305L351.643 324.457L356.032 327.094L376.221 331.488L370.954 350.824L372.71 355.219C373.295 356.977 374.758 357.562 377.099 356.977L394.655 335.883H398.166L418.355 341.156L420.111 337.641V333.246L413.088 316.547V314.789L425.377 301.605C425.963 299.262 425.67 297.797 424.5 297.211H419.233L408.699 299.848L401.677 283.148L399.921 273.48C398.751 271.137 396.41 270.258 392.899 270.844Z" />
    <path opacity="0.984314" d="M568.896 258.539C595.171 259.184 614.043 267.24 625.513 282.709C630.37 288.979 634.174 296.303 636.924 304.682L638.68 312.592V330.17C634.584 349.506 626.245 364.594 613.663 375.434C607.05 381.41 598.858 385.805 589.085 388.617L581.185 390.375H565.385C547.887 387.094 534.574 379.623 525.445 367.963C515.029 356.42 509.47 340.014 508.767 318.744L509.645 317.865L510.523 306.439L516.667 290.619C520.939 283.178 526.352 276.879 532.906 271.723L548.707 262.934L556.607 260.297L568.018 259.418L568.896 258.539ZM555.29 270.844L552.657 271.723L551.779 279.633L544.757 299.848L533.345 297.211H527.201V301.605L539.49 314.789L532.468 333.246C531.882 336.762 532.76 339.398 535.101 341.156L555.29 335.883H558.801L573.724 353.461L574.601 356.098L578.113 356.977L580.746 353.461V349.066L576.357 332.367L578.113 330.609L593.913 327.973L600.057 325.336L603.568 318.305L599.179 314.789H595.668L572.846 308.637L570.212 306.879L563.19 274.359C562.605 270.844 559.972 269.672 555.29 270.844Z" />
    <path opacity="0.984314" d="M474.095 330.609C477.898 330.023 480.385 330.756 481.556 332.807L486.823 355.658L492.967 372.357L505.256 396.967L520.178 418.061C509.587 437.631 497.883 456.088 485.067 473.432L484.189 476.947L485.945 483.1L483.75 486.176L481.117 487.934H471.461L467.511 484.857L466.633 479.584L468.389 475.19C455.047 457.201 443.05 437.865 432.4 417.182C442.816 405.346 451.301 391.576 457.856 375.873L465.756 354.779L469.267 338.959L472.339 331.488L474.095 330.609Z" />
    <path opacity="0.984314" d="M819.065 364.887L820.382 367.963L808.971 388.617L804.582 389.496L806.337 383.783L819.065 364.887Z" />
    <path opacity="0.984314" d="M132.196 365.766L135.707 367.963L147.118 385.541L147.996 389.496L142.73 387.299L132.196 367.963V365.766Z" />
    <path opacity="0.984314" d="M115.957 397.406H118.59L153.263 428.607L155.018 432.123L151.068 432.562L142.291 429.926L111.129 414.105L110.251 411.908L112.885 401.361L115.957 397.406Z" />
    <path opacity="0.984314" d="M833.988 397.406L837.938 398.285L839.693 401.361L841.449 412.787L836.621 416.742L812.043 429.047L805.899 431.684L797.998 432.562L799.315 430.365V428.607L807.654 420.258L833.988 397.406Z" />
    <path opacity="0.984314" d="M228.314 414.984C230.772 414.223 231.503 415.248 230.508 418.061L231.386 423.773C238.467 424.828 243.88 423.949 247.625 421.137L248.064 422.895C241.393 424.359 235.834 427.143 231.386 431.244L233.142 440.033L231.825 442.23L225.68 435.199L209.003 444.867L209.441 443.549L218.219 429.047C215.527 429.398 213.626 428.52 212.514 426.41L206.808 425.971C210.319 423.627 215.44 422.895 222.169 423.773L224.364 421.576L228.314 414.984Z" />
    <path opacity="0.984314" d="M566.262 461.566L566.701 462.885L564.946 468.158L564.068 477.826L564.946 482.221L567.14 485.297L602.691 486.615L595.229 487.934H587.329H585.574L579.429 489.691H573.285L566.262 492.328L560.557 498.041L553.096 521.332L552.657 518.256L558.801 494.525L550.462 490.57L527.64 487.934L524.567 486.615L550.462 486.176L559.679 480.463L564.068 469.037V464.643L566.262 461.566Z" />
    <path opacity="0.984314" d="M296.781 464.203C301.053 463.5 303.54 464.525 304.242 467.279C304.711 470.678 303.979 472.875 302.048 473.871L300.292 474.75L295.465 470.795C294.587 467.279 295.026 465.082 296.781 464.203Z" />
    <path opacity="0.984314" d="M154.58 467.719L188.374 483.1L187.058 485.297L158.091 471.234L154.58 467.719Z" />
    <path opacity="0.984314" d="M797.121 467.719L798.437 468.158L794.487 471.234L765.52 485.297L763.765 482.66L797.121 467.719Z" />
    <path opacity="0.984314" d="M246.747 481.781L246.308 483.1L241.042 495.404L230.508 530.561L226.997 549.896V568.354C228.109 572.865 230.303 576.234 233.581 578.461L237.092 579.34L242.797 576.264L257.72 547.26L263.425 528.363L263.864 532.318L255.086 576.264L247.186 598.236C244.728 605.15 241.071 610.863 236.214 615.375L228.314 616.254L220.853 609.662L214.708 597.357L212.953 578.9L213.83 578.021V566.596L214.708 565.717L215.586 555.17L224.364 520.014L235.775 495.404C238.467 489.896 242.124 485.355 246.747 481.781Z" />
    <path opacity="0.984314" d="M705.831 481.781C710.805 485.883 714.755 491.01 717.681 497.162L729.97 525.287L738.748 567.475V592.084C737.168 601.928 733.218 609.398 726.898 614.496C724.966 616.371 721.748 616.957 717.242 616.254L708.903 606.146L698.369 579.779L691.347 549.896L688.714 528.803H689.592L693.98 545.502L708.903 575.385L711.975 578.461L716.364 579.34L722.947 574.506C725.99 569.643 726.868 562.611 725.581 553.412L724.703 552.533V543.744L720.314 523.529L714.17 503.314L705.392 483.1L705.831 481.781Z" />
    <path opacity="0.984314" d="M362.177 549.457L365.688 549.896L364.81 552.094L362.177 550.775V549.457Z" />
    <path opacity="0.984314" d="M665.452 560.004L668.525 561.322C668.993 563.549 668.554 564.867 667.208 565.277C665.277 565.922 664.545 565.482 665.014 563.959L664.136 561.322L665.452 560.004Z" />
    <path opacity="0.984314" d="M299.415 578.461L299.854 579.779L298.537 582.855L298.098 580.658L299.415 578.461Z" />
    <path opacity="0.984314" d="M297.659 584.613L298.098 586.811L296.781 589.887L296.342 587.689L297.659 584.613Z" />
    <path opacity="0.984314" d="M295.904 590.766L296.342 598.676L325.748 596.918V597.797H318.726L314.337 599.555L299.415 600.434L297.22 602.631L291.954 611.42L290.637 619.77L290.198 614.057C291.661 613.178 291.954 611.127 291.076 607.904L290.198 603.07L283.615 602.191L282.737 603.07H275.714V602.191C283.322 602.074 289.32 600.609 293.709 597.797C293.299 594.691 294.031 592.348 295.904 590.766Z" />
    <path opacity="0.984314" d="M271.325 603.07L273.52 603.51L271.325 603.949V603.07Z" />
    <path opacity="0.984314" d="M769.909 611.859C772.484 610.98 773.508 611.42 772.982 613.178L773.859 617.572C773.567 619.33 772.25 620.062 769.909 619.77C767.451 619.359 766.427 617.455 766.837 614.057L769.909 611.859Z" />
    <path opacity="0.984314" d="M171.258 618.891L172.574 621.967L170.38 623.285L169.063 619.77L171.258 618.891Z" />
    <path opacity="0.984314" d="M191.447 668.109L195.397 668.549L165.991 682.172L164.674 679.975L165.552 677.777L191.447 668.109Z" />
    <path opacity="0.984314" d="M757.62 668.109L766.398 669.867L782.198 676.02L787.026 679.096C787.904 681.674 787.465 682.699 785.709 682.172C777.634 677.074 768.563 672.973 758.498 669.867L757.62 668.109Z" />
    <path opacity="0.984314" d="M688.714 685.688L691.347 687.006L693.542 691.84L699.686 687.445L693.981 694.037L695.736 695.795L696.614 699.311L695.297 698.871C691.728 698.168 690.118 698.607 690.469 700.189L689.592 702.387L686.958 703.705L686.519 705.023L686.081 703.705L688.714 697.992C686.49 698.578 685.027 698.139 684.325 696.674L689.592 693.158L688.714 685.688Z" />
    <path opacity="0.984314" d="M222.169 686.566L222.608 687.885L198.908 732.27L196.713 733.148C195.25 732.562 194.812 730.951 195.397 728.314L222.169 686.566Z" />
    <path opacity="0.984314" d="M729.531 686.566L732.603 688.764L757.181 728.314V731.83L754.987 733.148L731.725 692.279L729.531 686.566Z" />
    <path opacity="0.984314" d="M226.558 690.961C227.904 690.551 228.343 690.99 227.875 692.279L213.83 720.404L208.564 735.346L205.491 738.422C203.619 737.426 202.595 735.521 202.419 732.709C209.383 717.709 217.429 703.793 226.558 690.961Z" />
    <path opacity="0.984314" d="M724.703 690.961L727.336 692.279L744.014 720.404L750.159 733.588L747.087 738.422L744.892 737.104L740.503 724.799L724.703 693.158V690.961Z" />
    <path opacity="0.984314" d="M132.635 720.844C134.566 720.199 135.298 720.639 134.829 722.162C130.323 726.439 124.91 729.809 118.59 732.269L118.151 730.951C121.897 726.498 126.724 723.129 132.635 720.844Z" />
    <path opacity="0.984314" d="M817.749 720.844C824.829 722.367 830.389 725.736 834.427 730.951L832.232 731.391L817.749 722.162V720.844Z" />
    <path opacity="0.984314" d="M157.213 721.723C159.788 720.844 160.812 721.283 160.285 723.041C152.21 731.068 145.187 740.15 139.218 750.287L131.757 757.758L127.368 759.516L123.418 757.758L122.54 751.605C124.12 752.25 124.706 751.811 124.296 750.287L132.635 741.059L157.213 721.723Z" />
    <path opacity="0.984314" d="M792.293 721.723L796.243 722.602L825.649 746.771L830.038 752.924V755.561L829.16 757.758L824.332 759.516L821.699 758.637L813.36 750.287L792.293 721.723Z" />
    <path opacity="0.984314" d="M697.931 825.434L702.758 832.904L704.514 839.936H703.636L696.614 826.752L697.931 825.434Z" />
    <path opacity="0.984314" d="M253.77 826.312C255.291 825.844 255.73 826.576 255.086 828.51L248.503 839.496L248.064 838.178L250.697 830.268L253.77 826.312Z" />
  </g>
  <defs>
    <clipPath id="clip0_1_2">
      <rect width="955" height="945" fill="white"/>
    </clipPath>
  </defs>
</svg>
