<svg width="2732" height="2048" version="1.1" xmlns="http://www.w3.org/2000/svg" desc="Created with imagetracer.js version 1.2.6" ><path fill="rgb(0,0,0)" stroke="rgb(0,0,0)" stroke-width="1" opacity="0.984313725490196" d="M 1419.5 701 Q 1421.8 701.8 1421 705.5 L 1411 739.5 L 1408.5 742 Q 1405.8 740.8 1407 735.5 L 1417 707.5 L 1417 704.5 L 1419.5 701 Z " /><path fill="rgb(0,0,0)" stroke="rgb(0,0,0)" stroke-width="1" opacity="0.984313725490196" d="M 1366 732 Q 1370 730.6 1368 737.5 L 1369 738.5 L 1369 747.5 L 1368 747.5 L 1365 734.5 L 1366 732 Z " /><path fill="rgb(0,0,0)" stroke="rgb(0,0,0)" stroke-width="1" opacity="0.984313725490196" d="M 1199.5 734 L 1204 737.5 L 1210 750.5 L 1210 754.5 L 1220 792.5 L 1218 793 L 1213 783.5 L 1198 739.5 L 1198 735.5 L 1199.5 734 Z " /><path fill="rgb(0,0,0)" stroke="rgb(0,0,0)" stroke-width="1" opacity="0.984313725490196" d="M 1184 761 L 1192 761 L 1192 763.5 L 1194 766.5 L 1196 776.5 L 1194 775.5 L 1184 761 Z " /><path fill="rgb(0,0,0)" stroke="rgb(0,0,0)" stroke-width="1" opacity="0.984313725490196" d="M 1568 761 L 1574.5 761 L 1576 762.5 L 1563.5 778 L 1564 776.5 L 1568 761 Z " /><path fill="rgb(0,0,0)" stroke="rgb(0,0,0)" stroke-width="1" opacity="0.984313725490196" d="M 1342.5 762 L 1345.5 763 L 1370 763 L 1374 778.5 L 1379.5 791 L 1385 780.5 L 1389 764.5 L 1390.5 763 L 1414.5 763 L 1417.5 762 L 1418.5 763 L 1432.5 763 L 1433.5 764 L 1466.5 766 L 1467.5 767 L 1486.5 769 L 1510.5 776 L 1522.5 783 L 1528 788.5 Q 1531.6 795.4 1530 807.5 Q 1527.8 808.7 1529 813.5 L 1530.5 813 L 1542.5 808 L 1549.5 808 Q 1564.1 811.9 1572 822.5 L 1569 824 L 1569 825.5 L 1559.5 835 L 1547 844.5 L 1550.5 845 L 1576.5 836 L 1589 834 L 1590 837.5 L 1607 854.5 L 1638 892.5 L 1660.5 929 L 1667.5 926 L 1678.5 925 L 1679.5 926 L 1687.5 926 L 1703.5 931 Q 1714 936 1721 944.5 Q 1728.4 953.1 1732 965.5 Q 1734.6 973.4 1733 985.5 Q 1728.1 1005.1 1715.5 1017 L 1705.5 1024 L 1697.5 1027 L 1692.5 1027 L 1691 1028.5 Q 1712.9 1055.1 1728 1088.5 L 1745 1130.5 L 1747 1137.5 L 1747 1148.5 L 1741 1160.5 L 1714 1192.5 L 1715.5 1193 L 1745.5 1176 L 1753.5 1175 L 1759 1179.5 L 1772 1213.5 L 1783 1249.5 L 1778.5 1255 L 1772.5 1258 L 1749.5 1261 L 1747 1262.5 L 1780.5 1269 L 1785 1273.5 L 1784 1276 L 1766.5 1285 L 1758 1287.5 Q 1775.3 1296.7 1787 1311.5 L 1792 1319.5 L 1794 1336.5 L 1795 1337.5 L 1795 1345.5 L 1796 1346.5 L 1796 1384.5 L 1790 1415.5 L 1783 1440.5 L 1766 1479.5 L 1757.5 1491 L 1746.5 1493 L 1714.5 1477 L 1714 1478.5 L 1728 1502.5 L 1737 1520.5 L 1737 1523.5 L 1723.5 1539 L 1695.5 1562 Q 1666.5 1582.5 1633.5 1599 L 1568.5 1626 L 1534.5 1637 L 1517.5 1641 L 1513 1643.5 Q 1505.1 1675.1 1483.5 1693 L 1475.5 1698 L 1467.5 1698 L 1459 1681.5 L 1454 1661.5 L 1453 1651 L 1438.5 1651 L 1437.5 1652 L 1392.5 1652 L 1390.5 1651 L 1386.5 1652 L 1384.5 1651 Q 1382.8 1653.8 1376.5 1652 L 1374.5 1651 L 1370.5 1652 L 1366.5 1652 L 1322.5 1652 L 1321.5 1651 L 1307 1651 L 1302 1677.5 L 1295 1694.5 L 1291.5 1698 Q 1283.8 1699.2 1280.5 1696 L 1264 1680.5 L 1252 1660.5 L 1247 1643.5 L 1245.5 1642 L 1225.5 1637 L 1188.5 1625 L 1137.5 1604 L 1114.5 1593 L 1068.5 1565 Q 1045.1 1548.9 1026 1528.5 Q 1022.4 1526.6 1023 1520.5 L 1046 1477 L 1024.5 1488 L 1018 1489 L 1016.5 1492 L 1011.5 1493 Q 1010 1490.5 1004.5 1492 L 1000 1488.5 L 990 1472.5 L 974 1431.5 L 970 1416.5 L 968 1401.5 L 965 1393.5 L 963 1362.5 L 964 1361.5 L 964 1344.5 L 965 1343.5 L 967 1322.5 Q 971.8 1309.8 981.5 1302 Q 990.3 1293.3 1002 1287.5 Q 985.8 1283.7 975 1274.5 L 976 1271 L 979.5 1269 L 991.5 1266 L 1013 1262.5 L 1010.5 1261 L 987.5 1258 L 978 1253 L 977 1247.5 L 997 1188.5 L 1001 1179.5 L 1005.5 1175 L 1011.5 1175 L 1016.5 1177 L 1045.5 1193 L 1040 1186.5 L 1018 1159.5 L 1013 1149.5 L 1012 1141.5 L 1019 1118.5 L 1039 1073.5 Q 1051.9 1048.9 1069 1028.5 L 1067.5 1027 L 1062.5 1027 L 1052.5 1023 L 1039 1011.5 L 1029 993.5 L 1026 977.5 L 1027 976.5 L 1028 964.5 L 1032 954.5 Q 1037.3 944.8 1045.5 938 Q 1059.7 925.7 1085.5 925 Q 1087 927.5 1092.5 926 L 1099.5 929 L 1121 893.5 L 1151 856.5 L 1169 838.5 L 1171 834 L 1176.5 834 L 1205.5 844 L 1212.5 845 L 1211.5 843 L 1192 828 L 1188.5 823 L 1187 822.5 Q 1194.8 814.3 1205.5 809 L 1217.5 808 L 1230.5 814 L 1231 809.5 L 1230 808.5 L 1230 793.5 L 1234.5 785 L 1249.5 776 L 1273.5 769 L 1292.5 767 L 1293.5 766 L 1301.5 766 L 1302.5 765 L 1341.5 763 L 1342.5 762 Z M 1362 780 L 1351 782 L 1334 782 L 1333 783 L 1323 783 L 1322 784 L 1304 784 L 1303 785 L 1290 785 L 1289 786 L 1275 787 L 1260 791 L 1246 798 L 1248 817 L 1253 833 L 1256 852 L 1213 828 L 1207 831 L 1215 836 L 1225 849 Q 1228 850 1224 852 L 1211 852 L 1196 849 L 1188 849 L 1187 848 L 1176 857 Q 1156 875 1142 899 Q 1130 918 1124 944 L 1124 945 Q 1141 931 1165 922 L 1189 915 L 1200 914 L 1201 913 L 1210 913 L 1211 912 L 1247 913 L 1271 918 L 1283 922 Q 1312 933 1333 953 Q 1348 968 1358 989 L 1364 1007 L 1365 1019 L 1366 1020 L 1366 1031 L 1369 1040 L 1375 1037 Q 1387 1035 1392 1040 L 1391 1038 L 1392 1013 L 1397 995 Q 1405 973 1420 959 Q 1440 937 1470 925 L 1495 917 L 1511 914 L 1520 914 L 1521 913 L 1557 914 L 1581 919 L 1605 928 Q 1621 935 1633 946 L 1637 947 Q 1626 901 1598 872 L 1574 848 L 1557 851 L 1550 851 L 1549 852 L 1537 852 L 1534 851 L 1537 845 L 1553 831 L 1550 828 Q 1525 838 1505 852 L 1503 850 L 1512 816 L 1514 798 L 1498 790 L 1486 787 L 1472 786 L 1471 785 L 1458 785 L 1457 784 L 1439 784 L 1438 783 L 1428 783 L 1427 782 L 1410 782 L 1409 781 L 1396 780 L 1385 805 L 1382 808 L 1381 807 L 1379 808 L 1376 807 L 1367 787 L 1366 782 Q 1365 779 1362 780 Z M 1067 956 L 1065 957 Q 1061 958 1061 963 L 1089 986 L 1092 988 L 1100 989 Q 1102 980 1097 976 L 1072 957 L 1067 956 Z M 1688 957 L 1664 973 L 1657 982 L 1657 990 L 1666 989 L 1691 969 L 1696 964 L 1696 962 Q 1694 957 1688 957 Z M 1244 964 L 1233 966 L 1218 971 Q 1202 978 1191 988 Q 1176 1001 1167 1019 L 1161 1041 L 1161 1065 L 1165 1083 Q 1173 1105 1187 1122 Q 1198 1135 1215 1144 L 1233 1151 L 1248 1154 L 1268 1154 L 1279 1152 Q 1302 1145 1318 1131 Q 1331 1119 1340 1104 L 1348 1086 L 1353 1061 Q 1355 1017 1333 997 Q 1316 978 1291 969 L 1270 964 L 1244 964 Z M 1491 964 Q 1456 970 1435 989 L 1418 1008 L 1411 1023 L 1407 1043 L 1407 1063 L 1410 1080 Q 1417 1102 1430 1119 Q 1442 1132 1458 1142 L 1475 1150 L 1493 1154 L 1513 1154 L 1528 1151 L 1544 1145 L 1564 1131 Q 1591 1107 1599 1064 L 1599 1042 L 1594 1022 Q 1587 1006 1576 995 Q 1561 979 1540 970 L 1517 964 L 1491 964 Z M 1672 1028 L 1672 1039 L 1673 1040 L 1673 1064 L 1667 1090 Q 1657 1115 1641 1135 Q 1623 1155 1599 1169 L 1576 1179 L 1561 1183 L 1551 1185 L 1543 1185 L 1542 1186 L 1516 1186 L 1489 1181 Q 1460 1172 1440 1155 L 1432 1148 L 1429 1140 Q 1418 1127 1411 1110 L 1402 1088 L 1391 1052 L 1383 1047 Q 1375 1046 1372 1050 L 1368 1054 Q 1360 1085 1348 1112 Q 1340 1130 1328 1145 Q 1311 1162 1288 1173 L 1269 1180 L 1242 1185 L 1216 1185 L 1215 1184 L 1207 1184 L 1182 1178 Q 1153 1168 1133 1150 Q 1112 1133 1099 1109 L 1088 1083 L 1084 1063 L 1084 1039 L 1085 1038 L 1085 1032 L 1073 1045 L 1044 1086 L 1021 1139 L 1028 1154 L 1063 1195 L 1073 1211 L 1074 1214 L 1073 1217 L 1070 1217 L 1055 1211 L 1014 1190 L 1011 1194 L 995 1245 L 1005 1246 L 1049 1262 Q 1051 1261 1050 1264 Q 1035 1273 1013 1274 L 1013 1275 Q 1015 1274 1014 1277 L 1033 1285 Q 1035 1284 1034 1287 L 1032 1289 L 1008 1301 L 991 1314 L 982 1325 L 980 1343 L 979 1344 L 979 1351 L 978 1352 L 978 1396 L 979 1397 L 979 1410 L 994 1448 L 1011 1476 L 1015 1478 L 1019 1477 L 1030 1469 L 1058 1454 L 1063 1452 L 1068 1452 L 1072 1459 L 1048 1501 L 1039 1522 Q 1061 1542 1087 1559 L 1122 1580 Q 1141 1591 1165 1599 L 1166 1600 L 1165 1596 L 1165 1551 L 1166 1550 L 1167 1532 L 1168 1531 L 1168 1521 L 1179 1474 L 1190 1445 L 1205 1415 L 1227 1382 L 1245 1362 Q 1247 1363 1246 1361 L 1249 1359 L 1251 1355 L 1274 1337 Q 1281 1335 1285 1330 L 1319 1313 L 1340 1308 L 1342 1306 L 1347 1305 L 1360 1304 L 1361 1303 L 1376 1303 L 1377 1302 L 1410 1304 L 1421 1306 L 1423 1308 Q 1428 1307 1431 1310 L 1435 1310 L 1447 1314 L 1451 1317 L 1466 1323 L 1491 1339 Q 1493 1338 1492 1341 L 1495 1342 Q 1497 1341 1496 1344 Q 1502 1345 1505 1350 Q 1507 1349 1506 1352 L 1518 1361 L 1527 1373 L 1530 1374 Q 1545 1393 1558 1415 L 1572 1443 Q 1575 1456 1581 1466 L 1582 1474 L 1584 1477 L 1591 1503 L 1591 1510 L 1596 1537 L 1597 1565 L 1598 1566 L 1597 1596 L 1596 1597 L 1597 1599 Q 1668 1570 1721 1522 L 1709 1496 L 1688 1460 L 1691 1452 Q 1698 1451 1703 1454 L 1729 1468 L 1740 1476 L 1746 1478 L 1756 1466 L 1769 1441 L 1781 1409 L 1781 1395 L 1782 1394 L 1782 1355 L 1781 1354 L 1781 1345 L 1778 1331 L 1778 1325 L 1776 1322 L 1759 1305 L 1728 1288 Q 1725 1289 1726 1285 L 1748 1275 L 1728 1271 L 1716 1267 L 1709 1263 L 1756 1246 L 1765 1245 L 1750 1197 L 1747 1190 L 1699 1214 L 1686 1217 L 1686 1212 L 1696 1196 L 1732 1154 L 1739 1141 L 1732 1121 L 1714 1083 L 1686 1044 L 1672 1028 Z M 1363 1317 L 1362 1318 L 1354 1318 L 1338 1321 L 1315 1329 Q 1309 1334 1300 1336 Q 1273 1351 1252 1372 Q 1253 1374 1251 1373 L 1225 1403 L 1205 1435 L 1197 1452 L 1186 1481 L 1178 1511 L 1177 1524 L 1173 1545 L 1172 1569 L 1171 1570 L 1171 1591 L 1172 1592 L 1172 1603 L 1215 1619 L 1268 1634 L 1279 1636 L 1287 1636 L 1288 1637 L 1305 1637 L 1306 1638 L 1321 1638 L 1322 1639 L 1340 1639 L 1341 1640 L 1355 1640 L 1356 1639 L 1405 1639 L 1406 1640 L 1439 1639 L 1440 1638 L 1455 1638 L 1456 1637 L 1473 1637 L 1474 1636 L 1482 1636 L 1493 1634 L 1536 1622 Q 1563 1614 1587 1603 L 1584 1595 L 1584 1557 L 1583 1556 L 1583 1545 L 1582 1544 L 1582 1531 L 1571 1481 L 1556 1442 L 1546 1424 L 1534 1405 L 1512 1378 L 1510 1376 L 1506 1371 Q 1503 1372 1504 1370 L 1491 1358 Q 1488 1359 1489 1356 L 1462 1338 L 1444 1329 L 1421 1321 L 1405 1318 L 1398 1318 L 1397 1317 L 1363 1317 Z " /><path fill="rgb(0,0,0)" stroke="rgb(0,0,0)" stroke-width="1" opacity="0.984313725490196" d="M 1419 811 Q 1422 810 1421 813 Q 1418 814 1419 811 Z " /><path fill="rgb(0,0,0)" stroke="rgb(0,0,0)" stroke-width="1" opacity="0.984313725490196" d="M 1463 830 Q 1466.3 828.7 1465 833.5 L 1464 834.5 L 1464 850.5 L 1463 851.5 L 1464 854 L 1466.5 855 L 1480 856 L 1481 858.5 L 1478.5 862 L 1475.5 862 L 1465 867.5 L 1465 881.5 L 1466 882.5 L 1466 889 L 1463 887.5 L 1454.5 873 L 1432.5 885 L 1432 883.5 Q 1441 876 1446 864.5 L 1439.5 856 L 1436 853.5 L 1437.5 850 L 1452.5 852 L 1462 834.5 L 1463 830 Z " /><path fill="rgb(0,0,0)" stroke="rgb(0,0,0)" stroke-width="1" opacity="0.984313725490196" d="M 1514.5 861 Q 1518.3 860.3 1519 862.5 L 1516.5 868 Q 1511.1 869.9 1512 866.5 L 1511 863.5 L 1514.5 861 Z " /><path fill="rgb(0,0,0)" stroke="rgb(0,0,0)" stroke-width="1" opacity="0.984313725490196" d="M 1083.5 868 L 1085.5 868 L 1100.5 883 L 1102 883 L 1103 889 L 1099.5 889 L 1092 883.5 L 1081 871.5 L 1081 869 L 1083.5 868 Z " /><path fill="rgb(0,0,0)" stroke="rgb(0,0,0)" stroke-width="1" opacity="0.984313725490196" d="M 1674.5 868 L 1679 869 L 1676.5 874 Q 1674.3 873.3 1675 875.5 L 1663.5 887 L 1657 889 Q 1656.8 882.5 1661.5 880 L 1667 875.5 L 1671.5 870 L 1674.5 868 Z " /><path fill="rgb(0,0,0)" stroke="rgb(0,0,0)" stroke-width="1" opacity="0.984313725490196" d="M 1185 870 L 1192.5 870 L 1193 871.5 L 1190.5 875 L 1188.5 876 Q 1184.2 874.7 1185 870 Z " /><path fill="rgb(0,0,0)" stroke="rgb(0,0,0)" stroke-width="1" opacity="0.984313725490196" d="M 1727.5 886 Q 1733.6 884.8 1733 887.5 L 1726.5 891 L 1678.5 907 L 1677 904.5 L 1681.5 900 L 1694.5 895 L 1727.5 886 Z " /><path fill="rgb(0,0,0)" stroke="rgb(0,0,0)" stroke-width="1" opacity="0.984313725490196" d="M 1364 905 Q 1368.6 903.8 1370 906.5 Q 1371 912 1367.5 913 Q 1363.5 913.5 1363 910.5 L 1364 905 Z " /><path fill="rgb(0,0,0)" stroke="rgb(0,0,0)" stroke-width="1" opacity="0.984313725490196" d="M 1267.5 970 L 1283.5 971 L 1297.5 975 Q 1316.3 982.7 1328 997.5 Q 1336 1007.5 1340 1021.5 L 1343 1043.5 L 1342 1044.5 L 1341 1059.5 L 1334 1078.5 Q 1327.1 1093.1 1315.5 1103 Q 1304.3 1113.3 1287.5 1118 L 1277.5 1120 L 1260.5 1120 Q 1229.8 1114.2 1214 1093.5 Q 1202.8 1080.2 1197 1061.5 L 1195 1052.5 L 1195 1030.5 Q 1201.4 1001.4 1221.5 986 L 1239.5 976 L 1252.5 972 L 1266.5 971 L 1267.5 970 Z M 1285 984 L 1282 985 L 1272 1026 L 1253 1032 L 1241 1034 L 1235 1038 L 1238 1045 L 1243 1048 L 1266 1053 L 1260 1075 L 1262 1080 Q 1263 1083 1267 1082 L 1287 1058 L 1291 1058 L 1314 1064 L 1316 1060 L 1316 1055 L 1308 1036 L 1308 1034 L 1322 1019 Q 1323 1015 1321 1014 L 1315 1014 L 1303 1017 L 1295 998 L 1293 987 Q 1291 983 1285 984 Z " /><path fill="rgb(0,0,0)" stroke="rgb(0,0,0)" stroke-width="1" opacity="0.984313725490196" d="M 1485.5 970 Q 1530.4 971.1 1550 997.5 Q 1558.3 1008.2 1563 1022.5 L 1565 1031.5 L 1565 1051.5 Q 1558 1084.5 1536.5 1103 Q 1525.2 1113.2 1508.5 1118 L 1499.5 1120 L 1481.5 1120 Q 1451.6 1114.4 1436 1094.5 Q 1418.2 1074.8 1417 1038.5 L 1418 1037.5 L 1419 1024.5 L 1426 1006.5 Q 1433.3 993.8 1444.5 985 L 1462.5 975 L 1471.5 972 L 1484.5 971 L 1485.5 970 Z M 1470 984 L 1467 985 L 1466 994 L 1458 1017 L 1445 1014 L 1438 1014 L 1438 1019 L 1452 1034 L 1444 1055 Q 1443 1061 1447 1064 L 1470 1058 L 1474 1058 L 1491 1078 L 1492 1081 L 1496 1082 L 1499 1078 L 1499 1073 L 1494 1054 L 1496 1052 L 1514 1049 L 1521 1046 L 1525 1038 L 1520 1034 L 1516 1034 L 1490 1027 L 1487 1025 L 1479 988 Q 1478 982 1470 984 Z " /><path fill="rgb(0,0,0)" stroke="rgb(0,0,0)" stroke-width="1" opacity="0.984313725490196" d="M 1377.5 1052 Q 1384 1051 1386 1054.5 L 1392 1080.5 L 1399 1099.5 L 1413 1127.5 L 1430 1151.5 Q 1411.9 1184.9 1390 1214.5 L 1389 1218.5 L 1391 1225.5 L 1388.5 1229 L 1385.5 1231 L 1374.5 1231 L 1370 1227.5 L 1369 1221.5 L 1371 1216.5 Q 1348.2 1185.8 1330 1150.5 Q 1347.8 1130.3 1359 1103.5 L 1368 1079.5 L 1372 1061.5 L 1375.5 1053 L 1377.5 1052 Z " /><path fill="rgb(0,0,0)" stroke="rgb(0,0,0)" stroke-width="1" opacity="0.984313725490196" d="M 1770.5 1091 L 1772 1094.5 L 1759 1118 L 1754 1119 L 1756 1112.5 L 1770.5 1091 Z " /><path fill="rgb(0,0,0)" stroke="rgb(0,0,0)" stroke-width="1" opacity="0.984313725490196" d="M 988 1092 L 992 1094.5 L 1005 1114.5 L 1006 1119 L 1000 1116.5 L 988 1094.5 L 988 1092 Z " /><path fill="rgb(0,0,0)" stroke="rgb(0,0,0)" stroke-width="1" opacity="0.984313725490196" d="M 969.5 1128 L 972.5 1128 L 1012 1163.5 L 1014 1167.5 L 1009.5 1168 L 999.5 1165 L 964 1147 L 963 1144.5 L 966 1132.5 L 969.5 1128 Z " /><path fill="rgb(0,0,0)" stroke="rgb(0,0,0)" stroke-width="1" opacity="0.984313725490196" d="M 1787.5 1128 L 1792 1129 L 1794 1132.5 L 1796 1145.5 L 1790.5 1150 L 1762.5 1164 L 1755.5 1167 L 1746.5 1168 L 1748 1165.5 L 1748 1163.5 L 1757.5 1154 L 1787.5 1128 Z " /><path fill="rgb(0,0,0)" stroke="rgb(0,0,0)" stroke-width="1" opacity="0.984313725490196" d="M 1097.5 1148 Q 1101.7 1146.7 1100 1151.5 L 1101 1158 Q 1113.1 1159.8 1119.5 1155 L 1120 1157 Q 1108.6 1159.5 1101 1166.5 L 1103 1176.5 L 1101.5 1179 L 1094.5 1171 L 1075.5 1182 L 1076 1180.5 L 1086 1164 Q 1081.4 1164.6 1079.5 1161 L 1073 1160.5 Q 1079 1156.5 1090.5 1158 L 1093 1155.5 L 1097.5 1148 Z " /><path fill="rgb(0,0,0)" stroke="rgb(0,0,0)" stroke-width="1" opacity="0.984313725490196" d="M 1482.5 1201 L 1483 1202.5 L 1481 1208.5 L 1480 1219.5 L 1481 1224.5 L 1483.5 1228 L 1524 1229.5 L 1515.5 1231 L 1506.5 1231 L 1504.5 1231 L 1497.5 1233 L 1490.5 1233 L 1482.5 1236 L 1476 1242.5 L 1467.5 1269 L 1467 1265.5 L 1474 1238.5 L 1464.5 1234 L 1438.5 1231 L 1435 1229.5 L 1464.5 1229 L 1475 1222.5 L 1480 1209.5 L 1480 1204.5 L 1482.5 1201 Z " /><path fill="rgb(0,0,0)" stroke="rgb(0,0,0)" stroke-width="1" opacity="0.984313725490196" d="M 1175.5 1204 Q 1182.8 1202.8 1184 1207.5 Q 1184.8 1213.3 1181.5 1215 L 1179.5 1216 L 1174 1211.5 Q 1172.5 1205.5 1175.5 1204 Z " /><path fill="rgb(0,0,0)" stroke="rgb(0,0,0)" stroke-width="1" opacity="0.984313725490196" d="M 1013.5 1208 L 1052 1225.5 L 1050.5 1228 L 1017.5 1212 L 1013.5 1208 Z " /><path fill="rgb(0,0,0)" stroke="rgb(0,0,0)" stroke-width="1" opacity="0.984313725490196" d="M 1745.5 1208 L 1747 1208.5 L 1742.5 1212 L 1709.5 1228 L 1707.5 1225 L 1745.5 1208 Z " /><path fill="rgb(0,0,0)" stroke="rgb(0,0,0)" stroke-width="1" opacity="0.984313725490196" d="M 1118.5 1224 L 1118 1225.5 L 1112 1239.5 L 1100 1279.5 L 1096 1301.5 L 1096 1322.5 Q 1097.9 1330.2 1103.5 1334 L 1107.5 1335 L 1114 1331.5 L 1131 1298.5 L 1137.5 1277 L 1138 1281.5 L 1128 1331.5 L 1119 1356.5 Q 1114.8 1368.3 1106.5 1376 L 1097.5 1377 L 1089 1369.5 L 1082 1355.5 L 1080 1334.5 L 1081 1333.5 L 1081 1320.5 L 1082 1319.5 L 1083 1307.5 L 1093 1267.5 L 1106 1239.5 Q 1110.6 1230.1 1118.5 1224 Z " /><path fill="rgb(0,0,0)" stroke="rgb(0,0,0)" stroke-width="1" opacity="0.984313725490196" d="M 1641.5 1224 Q 1650 1231 1655 1241.5 L 1669 1273.5 L 1679 1321.5 L 1679 1349.5 Q 1676.3 1366.3 1665.5 1375 Q 1662.2 1378.2 1654.5 1377 L 1645 1365.5 L 1633 1335.5 L 1625 1301.5 L 1622 1277.5 L 1623 1277.5 L 1628 1296.5 L 1645 1330.5 L 1648.5 1334 L 1653.5 1335 L 1661 1329.5 Q 1666.2 1321.2 1664 1305.5 L 1663 1304.5 L 1663 1294.5 L 1658 1271.5 L 1651 1248.5 L 1641 1225.5 L 1641.5 1224 Z " /><path fill="rgb(0,0,0)" stroke="rgb(0,0,0)" stroke-width="1" opacity="0.984313725490196" d="M 1250 1301 L 1254 1301.5 L 1253 1304 L 1250 1302.5 L 1250 1301 Z " /><path fill="rgb(0,0,0)" stroke="rgb(0,0,0)" stroke-width="1" opacity="0.984313725490196" d="M 1595.5 1313 L 1599 1314.5 Q 1599.8 1318.3 1597.5 1319 Q 1594.2 1320.1 1595 1317.5 L 1594 1314.5 L 1595.5 1313 Z " /><path fill="rgb(0,0,0)" stroke="rgb(0,0,0)" stroke-width="1" opacity="0.984313725490196" d="M 1178.5 1334 L 1179 1335.5 L 1177.5 1339 L 1177 1336.5 L 1178.5 1334 Z " /><path fill="rgb(0,0,0)" stroke="rgb(0,0,0)" stroke-width="1" opacity="0.984313725490196" d="M 1176.5 1341 L 1177 1343.5 L 1175.5 1347 L 1175 1344.5 L 1176.5 1341 Z " /><path fill="rgb(0,0,0)" stroke="rgb(0,0,0)" stroke-width="1" opacity="0.984313725490196" d="M 1174.5 1348 L 1175 1357 L 1208.5 1355 L 1208.5 1356 L 1200.5 1356 L 1195.5 1358 L 1178.5 1359 L 1176 1361.5 L 1170 1371.5 L 1168.5 1381 L 1168 1374.5 Q 1170.5 1373 1169 1367.5 L 1168 1362 L 1160.5 1361 L 1159.5 1362 L 1151.5 1362 L 1151.5 1361 Q 1164.5 1360.8 1172 1356 Q 1171.3 1350.7 1174.5 1348 Z " /><path fill="rgb(0,0,0)" stroke="rgb(0,0,0)" stroke-width="1" opacity="0.984313725490196" d="M 1146.5 1362 L 1149 1362.5 L 1146.5 1363 L 1146.5 1362 Z " /><path fill="rgb(0,0,0)" stroke="rgb(0,0,0)" stroke-width="1" opacity="0.984313725490196" d="M 1714.5 1372 Q 1718.9 1370.5 1718 1373.5 L 1719 1378.5 Q 1718.5 1381.5 1714.5 1381 Q 1710.3 1380.3 1711 1374.5 L 1714.5 1372 Z " /><path fill="rgb(0,0,0)" stroke="rgb(0,0,0)" stroke-width="1" opacity="0.984313725490196" d="M 1032.5 1380 L 1034 1383.5 L 1031.5 1385 L 1030 1381 L 1032.5 1380 Z " /><path fill="rgb(0,0,0)" stroke="rgb(0,0,0)" stroke-width="1" opacity="0.984313725490196" d="M 1055.5 1436 L 1060 1436.5 L 1026.5 1452 L 1025 1449.5 L 1026 1447 L 1055.5 1436 Z " /><path fill="rgb(0,0,0)" stroke="rgb(0,0,0)" stroke-width="1" opacity="0.984313725490196" d="M 1700.5 1436 L 1710.5 1438 L 1728.5 1445 L 1734 1448.5 Q 1735.5 1452.9 1732.5 1452 Q 1718.7 1443.3 1701.5 1438 L 1700.5 1436 Z " /><path fill="rgb(0,0,0)" stroke="rgb(0,0,0)" stroke-width="1" opacity="0.984313725490196" d="M 1622 1456 L 1625 1457.5 L 1627.5 1463 L 1634.5 1458 L 1628 1465.5 L 1630 1467.5 L 1631 1471.5 L 1629.5 1471 Q 1623.4 1469.8 1624 1472.5 L 1623 1475 L 1620 1476.5 L 1619.5 1478 L 1619 1476.5 L 1622 1470 Q 1618.2 1471 1617 1468.5 L 1623 1464.5 L 1622 1456 Z " /><path fill="rgb(0,0,0)" stroke="rgb(0,0,0)" stroke-width="1" opacity="0.984313725490196" d="M 1090.5 1457 L 1091 1458.5 L 1064 1509 L 1061.5 1510 Q 1059 1509 1060 1504.5 L 1090.5 1457 Z " /><path fill="rgb(0,0,0)" stroke="rgb(0,0,0)" stroke-width="1" opacity="0.984313725490196" d="M 1668.5 1457 L 1672 1459.5 L 1700 1504.5 L 1700 1508.5 L 1697.5 1510 L 1671 1463.5 L 1668.5 1457 Z " /><path fill="rgb(0,0,0)" stroke="rgb(0,0,0)" stroke-width="1" opacity="0.984313725490196" d="M 1095.5 1462 Q 1097.8 1461.3 1097 1463.5 L 1081 1495.5 L 1075 1512.5 L 1071.5 1516 Q 1068.3 1514.3 1068 1509.5 Q 1079.9 1483.9 1095.5 1462 Z " /><path fill="rgb(0,0,0)" stroke="rgb(0,0,0)" stroke-width="1" opacity="0.984313725490196" d="M 1663 1462 L 1666 1463.5 L 1685 1495.5 L 1692 1510.5 L 1688.5 1516 L 1686 1514.5 L 1681 1500.5 L 1663 1464.5 L 1663 1462 Z " /><path fill="rgb(0,0,0)" stroke="rgb(0,0,0)" stroke-width="1" opacity="0.984313725490196" d="M 988.5 1496 Q 991.8 1494.9 991 1497.5 Q 983.3 1504.8 972.5 1509 L 972 1507.5 Q 978.4 1499.9 988.5 1496 Z " /><path fill="rgb(0,0,0)" stroke="rgb(0,0,0)" stroke-width="1" opacity="0.984313725490196" d="M 1769 1496 Q 1781.1 1498.6 1788 1507.5 L 1785.5 1508 L 1769 1497.5 L 1769 1496 Z " /><path fill="rgb(0,0,0)" stroke="rgb(0,0,0)" stroke-width="1" opacity="0.984313725490196" d="M 1016.5 1497 Q 1020.9 1495.5 1020 1498.5 Q 1006.2 1512.2 996 1529.5 L 987.5 1538 L 982.5 1540 L 978 1538 L 977 1531 Q 979.7 1532.1 979 1529.5 L 988.5 1519 L 1016.5 1497 Z " /><path fill="rgb(0,0,0)" stroke="rgb(0,0,0)" stroke-width="1" opacity="0.984313725490196" d="M 1740 1497 L 1744.5 1498 L 1778 1525.5 L 1783 1532.5 L 1783 1535.5 L 1782 1538 L 1776.5 1540 L 1773.5 1539 L 1764 1529.5 L 1740 1497 Z " /><path fill="rgb(0,0,0)" stroke="rgb(0,0,0)" stroke-width="1" opacity="0.984313725490196" d="M 1632.5 1615 L 1638 1623.5 L 1640 1631.5 L 1639 1631.5 L 1631 1616.5 L 1632.5 1615 Z " /><path fill="rgb(0,0,0)" stroke="rgb(0,0,0)" stroke-width="1" opacity="0.984313725490196" d="M 1126.5 1616 Q 1129.1 1615.2 1128 1618.5 L 1120.5 1631 L 1120 1629.5 L 1123 1620.5 L 1126.5 1616 Z " /><path fill="rgb(0,0,0)" stroke="rgb(0,0,0)" stroke-width="1" opacity="0" d="M 0 0 L 2732 0 L 2732 2048 L 0 2048 L 0 0 Z M 1420 701 L 1417 705 L 1417 708 L 1407 736 Q 1406 741 1409 742 L 1411 740 L 1421 706 Q 1422 702 1420 701 Z M 1366 732 L 1365 735 L 1368 748 L 1369 748 L 1369 739 L 1368 738 Q 1370 731 1366 732 Z M 1200 734 L 1198 736 L 1198 740 L 1213 784 L 1218 793 L 1220 793 L 1210 755 L 1210 751 L 1204 738 L 1200 734 Z M 1184 761 L 1194 776 L 1196 777 L 1194 767 L 1192 764 L 1192 761 L 1184 761 Z M 1568 761 L 1564 775 L 1565 777 L 1576 763 L 1575 761 L 1568 761 Z M 1343 762 L 1342 763 L 1303 765 L 1302 766 L 1294 766 L 1293 767 L 1274 769 L 1250 776 L 1235 785 L 1230 794 L 1230 809 L 1231 810 L 1231 814 L 1218 808 L 1206 809 Q 1195 814 1187 823 L 1189 823 L 1192 828 L 1212 843 L 1214 846 L 1177 834 L 1171 834 L 1169 839 L 1151 857 L 1121 894 L 1100 929 L 1093 926 Q 1087 928 1086 925 Q 1060 926 1046 938 Q 1037 945 1032 955 L 1028 965 L 1027 977 L 1026 978 L 1029 994 L 1039 1012 L 1053 1023 L 1063 1027 L 1068 1027 L 1069 1029 Q 1052 1049 1039 1074 L 1019 1119 L 1012 1142 L 1013 1150 L 1018 1160 L 1040 1187 L 1048 1195 L 1017 1177 L 1012 1175 L 1006 1175 L 1001 1180 L 997 1189 L 977 1248 L 978 1253 L 988 1258 L 1011 1261 L 1013 1263 L 992 1266 L 980 1269 L 976 1271 L 975 1275 Q 986 1284 1002 1288 Q 990 1293 982 1302 Q 972 1310 967 1323 L 965 1344 L 964 1345 L 964 1362 L 963 1363 L 965 1394 L 968 1402 L 970 1417 L 974 1432 L 990 1473 L 1000 1489 L 1005 1492 Q 1010 1491 1012 1493 L 1017 1492 L 1018 1489 L 1025 1488 L 1046 1477 L 1047 1477 L 1023 1521 Q 1022 1527 1026 1529 Q 1045 1549 1069 1565 L 1115 1593 L 1138 1604 L 1189 1625 L 1226 1637 L 1246 1642 L 1247 1644 L 1252 1661 L 1264 1681 L 1281 1696 Q 1284 1699 1292 1698 L 1295 1695 L 1302 1678 L 1307 1651 L 1322 1651 L 1323 1652 L 1367 1652 L 1371 1652 L 1375 1651 L 1377 1652 Q 1383 1654 1385 1651 L 1387 1652 L 1391 1651 L 1393 1652 L 1438 1652 L 1439 1651 L 1453 1651 L 1454 1662 L 1459 1682 L 1468 1698 L 1476 1698 L 1484 1693 Q 1505 1675 1513 1644 L 1518 1641 L 1535 1637 L 1569 1626 L 1634 1599 Q 1667 1583 1696 1562 L 1724 1539 L 1737 1524 L 1737 1521 L 1728 1503 L 1714 1478 L 1714 1476 L 1731 1486 L 1741 1489 L 1747 1493 L 1758 1491 L 1766 1480 L 1783 1441 L 1790 1416 L 1796 1385 L 1796 1347 L 1795 1346 L 1795 1338 L 1794 1337 L 1792 1320 L 1787 1312 Q 1775 1297 1758 1288 L 1767 1285 L 1784 1276 L 1785 1274 L 1781 1269 L 1747 1263 L 1750 1261 L 1773 1258 L 1779 1255 L 1783 1250 L 1772 1214 L 1759 1180 L 1754 1175 L 1746 1176 L 1715 1193 L 1712 1195 L 1738 1165 L 1747 1149 L 1747 1138 L 1745 1131 L 1728 1089 Q 1713 1055 1691 1029 L 1693 1027 L 1698 1027 L 1706 1024 L 1716 1017 Q 1728 1005 1733 986 Q 1735 973 1732 966 Q 1728 953 1721 945 Q 1714 936 1704 931 L 1688 926 L 1680 926 L 1679 925 L 1668 926 L 1661 929 L 1638 893 L 1607 855 L 1590 838 L 1589 834 L 1584 834 L 1558 843 L 1548 845 L 1546 846 L 1560 835 L 1569 826 L 1569 824 L 1572 823 Q 1564 812 1550 808 L 1543 808 L 1531 813 L 1529 814 Q 1528 809 1530 808 Q 1532 795 1528 789 L 1523 783 L 1511 776 L 1487 769 L 1468 767 L 1467 766 L 1434 764 L 1433 763 L 1419 763 L 1418 762 L 1415 763 L 1391 763 L 1389 765 L 1385 781 L 1380 791 L 1374 779 L 1370 763 L 1346 763 L 1343 762 Z M 1084 868 L 1081 869 L 1081 872 L 1092 884 L 1100 889 L 1103 889 L 1102 883 L 1101 883 L 1086 868 L 1084 868 Z M 1675 868 L 1672 870 L 1667 876 L 1662 880 Q 1657 883 1657 889 L 1664 887 L 1675 876 Q 1674 873 1677 874 L 1679 869 L 1675 868 Z M 1728 886 L 1695 895 L 1682 900 L 1677 905 L 1679 907 L 1727 891 L 1733 888 Q 1734 885 1728 886 Z M 1771 1091 L 1756 1113 L 1754 1119 L 1759 1118 L 1772 1095 L 1771 1091 Z M 988 1092 L 988 1095 L 1000 1117 L 1006 1119 L 1005 1115 L 992 1095 L 988 1092 Z M 970 1128 L 966 1133 L 963 1145 L 964 1147 L 1000 1165 L 1010 1168 L 1014 1168 L 1012 1164 L 973 1128 L 970 1128 Z M 1788 1128 L 1758 1154 L 1748 1164 L 1748 1166 L 1747 1168 L 1756 1167 L 1763 1164 L 1791 1150 L 1796 1146 L 1794 1133 L 1792 1129 L 1788 1128 Z M 989 1496 Q 978 1500 972 1508 L 973 1509 Q 983 1505 991 1498 Q 992 1495 989 1496 Z M 1769 1496 L 1769 1498 L 1786 1508 L 1788 1508 Q 1781 1499 1769 1496 Z M 1017 1497 L 989 1519 L 979 1530 Q 980 1532 977 1531 L 978 1538 L 983 1540 L 988 1538 L 996 1530 Q 1006 1512 1020 1499 Q 1021 1495 1017 1497 Z M 1740 1497 L 1764 1530 L 1774 1539 L 1777 1540 L 1782 1538 L 1783 1536 L 1783 1533 L 1778 1526 L 1745 1498 L 1740 1497 Z M 1633 1615 L 1631 1617 L 1637 1629 L 1639 1630 Q 1638 1620 1633 1615 Z M 1127 1616 L 1123 1621 L 1120 1630 L 1121 1631 L 1128 1619 Q 1129 1615 1127 1616 Z " /><path fill="rgb(0,0,0)" stroke="rgb(0,0,0)" stroke-width="1" opacity="0" d="M 1361.5 780 Q 1365.3 779.3 1366 781.5 L 1367 786.5 L 1376 807 L 1378.5 808 L 1380.5 807 L 1381.5 808 L 1385 804.5 L 1395.5 780 L 1408.5 781 L 1409.5 782 L 1426.5 782 L 1427.5 783 L 1437.5 783 L 1438.5 784 L 1456.5 784 L 1457.5 785 L 1470.5 785 L 1471.5 786 L 1485.5 787 L 1497.5 790 L 1514 798 L 1512 815.5 L 1503 849.5 L 1504.5 852 Q 1525.1 838.1 1549.5 828 L 1553 830.5 L 1537 844.5 L 1534 851 L 1536.5 852 L 1548.5 852 L 1549.5 851 L 1556.5 851 L 1573.5 848 L 1598 871.5 Q 1625.7 901.5 1637 947 L 1632.5 946 Q 1620.5 935 1604.5 928 L 1580.5 919 L 1556.5 914 L 1520.5 913 L 1519.5 914 L 1510.5 914 L 1494.5 917 L 1469.5 925 Q 1440.4 937.4 1420 958.5 Q 1405.4 973.4 1397 994.5 L 1392 1012.5 L 1391 1037.5 L 1392 1040 Q 1386.9 1035.4 1374.5 1037 L 1368.5 1040 L 1366 1030.5 L 1366 1019.5 L 1365 1018.5 L 1364 1006.5 L 1358 988.5 Q 1348.3 967.7 1332.5 953 Q 1311.7 933.3 1282.5 922 L 1270.5 918 L 1246.5 913 L 1210.5 912 L 1209.5 913 L 1200.5 913 L 1199.5 914 L 1188.5 915 L 1164.5 922 Q 1141.1 930.6 1123.5 945 L 1124 943.5 Q 1130.1 918.1 1142 898.5 Q 1156.4 875.4 1175.5 857 L 1186.5 848 L 1187.5 849 L 1195.5 849 L 1210.5 852 L 1223.5 852 Q 1227.8 850.3 1225 848.5 L 1214.5 836 L 1207 830.5 L 1212.5 828 L 1256 852 L 1253 832.5 L 1248 816.5 L 1246 798 L 1259.5 791 L 1274.5 787 L 1288.5 786 L 1289.5 785 L 1302.5 785 L 1303.5 784 L 1321.5 784 L 1322.5 783 L 1332.5 783 L 1333.5 782 L 1350.5 782 L 1361.5 780 Z M 1419 811 Q 1418 814 1421 813 Q 1422 810 1419 811 Z M 1463 830 L 1462 835 L 1453 852 L 1438 850 L 1436 854 L 1440 856 L 1446 865 Q 1441 876 1432 884 L 1433 885 L 1455 873 L 1463 888 L 1466 889 L 1466 883 L 1465 882 L 1465 868 L 1476 862 L 1479 862 L 1481 859 L 1480 856 L 1467 855 L 1464 854 L 1463 852 L 1464 851 L 1464 835 L 1465 834 Q 1466 829 1463 830 Z M 1515 861 L 1511 864 L 1512 867 Q 1511 870 1517 868 L 1519 863 Q 1518 860 1515 861 Z M 1185 870 Q 1184 875 1189 876 L 1191 875 L 1193 872 L 1193 870 L 1185 870 Z M 1364 905 L 1363 911 Q 1363 914 1368 913 Q 1371 912 1370 907 Q 1369 904 1364 905 Z " /><path fill="rgb(0,0,0)" stroke="rgb(0,0,0)" stroke-width="1" opacity="0" d="M 1066.5 956 L 1071.5 957 L 1097 975.5 Q 1101.7 979.5 1100 989 L 1091.5 988 L 1088.5 986 L 1061 962.5 Q 1060.5 957.5 1064.5 957 L 1066.5 956 Z " /><path fill="rgb(0,0,0)" stroke="rgb(0,0,0)" stroke-width="1" opacity="0" d="M 1687.5 957 Q 1693.9 957.1 1696 961.5 L 1696 963.5 L 1690.5 969 L 1665.5 989 L 1657 990 L 1657 981.5 L 1663.5 973 L 1687.5 957 Z " /><path fill="rgb(0,0,0)" stroke="rgb(0,0,0)" stroke-width="1" opacity="0" d="M 1243.5 964 L 1269.5 964 L 1290.5 969 Q 1316.2 978.3 1333 996.5 Q 1354.5 1017 1353 1060.5 L 1348 1085.5 L 1340 1103.5 Q 1330.9 1119.4 1317.5 1131 Q 1301.9 1145.4 1278.5 1152 L 1267.5 1154 L 1247.5 1154 L 1232.5 1151 L 1214.5 1144 Q 1198.4 1135.1 1187 1121.5 Q 1172.7 1105.3 1165 1082.5 L 1161 1064.5 L 1161 1040.5 L 1167 1018.5 Q 1176.1 1000.6 1190.5 988 Q 1202.2 977.7 1217.5 971 L 1232.5 966 L 1243.5 964 Z M 1268 970 L 1267 971 L 1253 972 L 1240 976 L 1222 986 Q 1201 1001 1195 1031 L 1195 1053 L 1197 1062 Q 1203 1080 1214 1094 Q 1230 1114 1261 1120 L 1278 1120 L 1288 1118 Q 1304 1113 1316 1103 Q 1327 1093 1334 1079 L 1341 1060 L 1342 1045 L 1343 1044 L 1340 1022 Q 1336 1008 1328 998 Q 1316 983 1298 975 L 1284 971 L 1268 970 Z " /><path fill="rgb(0,0,0)" stroke="rgb(0,0,0)" stroke-width="1" opacity="0" d="M 1490.5 964 L 1516.5 964 L 1539.5 970 Q 1561.1 978.9 1576 994.5 Q 1587 1006 1594 1021.5 L 1599 1041.5 L 1599 1063.5 Q 1591.2 1107.2 1563.5 1131 L 1543.5 1145 L 1527.5 1151 L 1512.5 1154 L 1492.5 1154 L 1474.5 1150 L 1457.5 1142 Q 1441.6 1132.4 1430 1118.5 Q 1416.7 1102.3 1410 1079.5 L 1407 1062.5 L 1407 1042.5 L 1411 1022.5 L 1418 1007.5 L 1434.5 989 Q 1455.8 969.8 1490.5 964 Z M 1486 970 L 1485 971 L 1472 972 L 1463 975 L 1445 985 Q 1433 994 1426 1007 L 1419 1025 L 1418 1038 L 1417 1039 Q 1418 1075 1436 1095 Q 1452 1114 1482 1120 L 1500 1120 L 1509 1118 Q 1525 1113 1537 1103 Q 1558 1084 1565 1052 L 1565 1032 L 1563 1023 Q 1558 1008 1550 998 Q 1530 971 1486 970 Z " /><path fill="rgb(0,0,0)" stroke="rgb(0,0,0)" stroke-width="1" opacity="0" d="M 1284.5 984 Q 1291.5 982.5 1293 986.5 L 1295 997.5 L 1302.5 1017 L 1314.5 1014 L 1320.5 1014 Q 1322.8 1014.8 1322 1018.5 L 1308 1033.5 L 1308 1035.5 L 1316 1054.5 L 1316 1059.5 L 1313.5 1064 L 1290.5 1058 L 1286.5 1058 L 1266.5 1082 Q 1262.5 1082.5 1262 1079.5 L 1260 1074.5 L 1266 1053 L 1242.5 1048 L 1238 1044.5 L 1235 1037.5 L 1240.5 1034 L 1252.5 1032 L 1272 1026 L 1282 985 L 1284.5 984 Z " /><path fill="rgb(0,0,0)" stroke="rgb(0,0,0)" stroke-width="1" opacity="0" d="M 1469.5 984 Q 1477.5 982.5 1479 987.5 L 1487 1024.5 L 1489.5 1027 L 1515.5 1034 L 1519.5 1034 L 1525 1037.5 L 1520.5 1046 L 1513.5 1049 L 1495.5 1052 L 1494 1053.5 L 1499 1072.5 L 1499 1077.5 L 1495.5 1082 L 1492 1080.5 L 1491 1077.5 L 1473.5 1058 L 1469.5 1058 L 1446.5 1064 Q 1443.1 1061.4 1444 1054.5 L 1452 1033.5 L 1438 1018.5 L 1438 1014 L 1444.5 1014 L 1458 1017 L 1466 993.5 L 1467 985 L 1469.5 984 Z " /><path fill="rgb(0,0,0)" stroke="rgb(0,0,0)" stroke-width="1" opacity="0" d="M 1671.5 1028 L 1686 1043.5 L 1714 1082.5 L 1732 1120.5 L 1739 1140.5 L 1732 1153.5 L 1696 1195.5 L 1686 1211.5 L 1686 1217 L 1698.5 1214 L 1746.5 1190 L 1750 1196.5 L 1765 1244.5 L 1755.5 1246 L 1709 1262.5 L 1715.5 1267 L 1727.5 1271 L 1748 1274.5 L 1726 1285 Q 1724.5 1288.7 1727.5 1288 L 1758.5 1305 L 1776 1321.5 L 1778 1324.5 L 1778 1330.5 L 1781 1344.5 L 1781 1353.5 L 1782 1354.5 L 1782 1393.5 L 1781 1394.5 L 1781 1408.5 L 1769 1440.5 L 1756 1465.5 L 1745.5 1478 L 1739.5 1476 L 1728.5 1468 L 1702.5 1454 Q 1697.9 1451.3 1691 1452 L 1688 1459.5 L 1709 1495.5 L 1721 1521.5 Q 1668.3 1569.8 1596.5 1599 L 1596 1596.5 L 1597 1595.5 L 1598 1565.5 L 1597 1564.5 L 1596 1536.5 L 1591 1509.5 L 1591 1502.5 L 1584 1476.5 L 1582 1473.5 L 1581 1465.5 Q 1574.9 1455.6 1572 1442.5 L 1558 1414.5 Q 1545.5 1392.5 1529.5 1374 L 1527 1372.5 L 1517.5 1361 L 1506 1352 Q 1507.1 1349.3 1504.5 1350 Q 1501.8 1344.8 1496 1344 Q 1497.1 1341.3 1494.5 1342 L 1492 1341 Q 1493.1 1338.3 1490.5 1339 L 1465.5 1323 L 1450.5 1317 L 1446.5 1314 L 1434.5 1310 L 1430.5 1310 Q 1428.2 1307.3 1422.5 1308 L 1420.5 1306 L 1409.5 1304 L 1376.5 1302 L 1375.5 1303 L 1360.5 1303 L 1359.5 1304 L 1346.5 1305 L 1341.5 1306 L 1339.5 1308 L 1318.5 1313 L 1284.5 1330 Q 1280.5 1335 1273.5 1337 L 1251 1355 L 1248.5 1359 L 1246 1360.5 Q 1246.8 1362.8 1244.5 1362 L 1227 1381.5 L 1205 1414.5 L 1190 1444.5 L 1179 1473.5 L 1168 1520.5 L 1168 1530.5 L 1167 1531.5 L 1166 1549.5 L 1165 1550.5 L 1165 1595.5 L 1166 1599.5 L 1164.5 1599 Q 1141.4 1591.1 1121.5 1580 L 1086.5 1559 Q 1060.6 1542.4 1039 1521.5 L 1048 1500.5 L 1072 1458.5 L 1067.5 1452 L 1062.5 1452 L 1057.5 1454 L 1029.5 1469 L 1018.5 1477 L 1014.5 1478 L 1011 1475.5 L 994 1447.5 L 979 1409.5 L 979 1396.5 L 978 1395.5 L 978 1351.5 L 979 1350.5 L 979 1343.5 L 980 1342.5 L 982 1324.5 L 990.5 1314 L 1007.5 1301 L 1031.5 1289 L 1034 1286.5 Q 1034.8 1284.3 1032.5 1285 L 1014 1277 Q 1015.1 1274.3 1012.5 1275 L 1012.5 1274 Q 1035.1 1272.6 1050 1263.5 Q 1050.8 1261.3 1048.5 1262 L 1004.5 1246 L 995 1245 L 1011 1193.5 L 1013.5 1190 L 1054.5 1211 L 1069.5 1217 L 1072.5 1217 L 1074 1213.5 L 1073 1210.5 L 1063 1194.5 L 1028 1153.5 L 1021 1138.5 L 1044 1085.5 L 1073 1044.5 L 1084.5 1032 L 1085 1037.5 L 1084 1038.5 L 1084 1062.5 L 1088 1082.5 L 1099 1108.5 Q 1112.2 1132.8 1132.5 1150 Q 1152.9 1168.1 1181.5 1178 L 1206.5 1184 L 1214.5 1184 L 1215.5 1185 L 1241.5 1185 L 1268.5 1180 L 1287.5 1173 Q 1311 1162 1328 1144.5 Q 1339.6 1129.6 1348 1111.5 Q 1360.2 1084.7 1368 1053.5 L 1371.5 1050 Q 1374.7 1046.2 1382.5 1047 L 1391 1052 L 1402 1087.5 L 1411 1109.5 Q 1418 1126.5 1429 1139.5 L 1432 1147.5 L 1439.5 1155 Q 1459.5 1172.5 1488.5 1181 L 1515.5 1186 L 1541.5 1186 L 1542.5 1185 L 1550.5 1185 L 1560.5 1183 L 1575.5 1179 L 1598.5 1169 Q 1623.3 1155.3 1641 1134.5 Q 1657.3 1115.3 1667 1089.5 L 1673 1063.5 L 1673 1039.5 L 1672 1038.5 L 1671.5 1028 Z M 1378 1052 L 1376 1053 L 1372 1062 L 1368 1080 L 1359 1104 Q 1348 1130 1330 1151 Q 1348 1186 1371 1217 L 1369 1222 L 1370 1228 L 1375 1231 L 1386 1231 L 1389 1229 L 1391 1226 L 1389 1219 L 1390 1215 Q 1412 1185 1430 1152 L 1413 1128 L 1399 1100 L 1392 1081 L 1386 1055 Q 1384 1051 1378 1052 Z M 1098 1148 L 1093 1156 L 1091 1158 Q 1079 1156 1073 1161 L 1080 1161 Q 1081 1165 1086 1164 L 1076 1180 L 1077 1181 L 1095 1171 L 1102 1179 L 1103 1177 L 1101 1167 Q 1109 1160 1120 1157 L 1120 1155 Q 1113 1160 1101 1158 L 1100 1152 Q 1102 1147 1098 1148 Z M 1483 1201 L 1480 1205 L 1480 1210 L 1475 1223 L 1465 1229 L 1435 1230 L 1439 1231 L 1465 1234 L 1474 1239 L 1467 1266 L 1468 1269 L 1476 1243 L 1483 1236 L 1491 1233 L 1498 1233 L 1505 1231 L 1507 1231 L 1516 1231 L 1524 1230 L 1484 1228 L 1481 1225 L 1480 1220 L 1481 1209 L 1483 1203 L 1483 1201 Z M 1176 1204 Q 1172 1206 1174 1212 L 1180 1216 L 1182 1215 Q 1185 1213 1184 1208 Q 1183 1203 1176 1204 Z M 1014 1208 L 1018 1212 L 1051 1228 L 1052 1226 L 1014 1208 Z M 1746 1208 L 1708 1225 L 1710 1228 L 1743 1212 L 1747 1209 L 1746 1208 Z M 1642 1224 L 1641 1226 L 1651 1249 L 1658 1272 L 1663 1295 L 1663 1305 L 1664 1306 Q 1666 1321 1661 1330 L 1654 1335 L 1649 1334 L 1645 1331 L 1628 1297 L 1623 1278 L 1622 1278 L 1625 1302 L 1633 1336 L 1645 1366 L 1655 1377 Q 1662 1378 1666 1375 Q 1676 1366 1679 1350 L 1679 1322 L 1669 1274 L 1655 1242 Q 1650 1231 1642 1224 Z M 1118 1225 Q 1110 1231 1106 1240 L 1093 1268 L 1083 1308 L 1082 1320 L 1081 1321 L 1081 1334 L 1080 1335 L 1082 1356 L 1089 1370 L 1098 1377 L 1107 1376 Q 1115 1368 1119 1357 L 1128 1332 L 1138 1282 L 1138 1277 L 1131 1299 L 1114 1332 L 1108 1335 L 1104 1334 Q 1098 1330 1096 1323 L 1096 1302 L 1100 1280 L 1112 1240 L 1118 1228 L 1118 1225 Z M 1250 1301 L 1250 1303 L 1253 1304 L 1254 1302 L 1250 1301 Z M 1596 1313 L 1594 1315 L 1595 1318 Q 1594 1320 1598 1319 Q 1600 1318 1599 1315 L 1596 1313 Z M 1178 1336 L 1177 1339 L 1178 1339 L 1178 1336 Z M 1177 1341 L 1176 1344 L 1177 1344 L 1177 1341 Z M 1176 1344 L 1175 1347 L 1176 1347 L 1176 1344 Z M 1175 1348 Q 1171 1351 1172 1356 Q 1164 1361 1152 1361 L 1152 1362 L 1160 1362 L 1161 1361 L 1168 1362 L 1169 1368 Q 1171 1373 1168 1375 L 1169 1381 L 1170 1372 L 1176 1362 L 1179 1359 L 1200 1357 L 1200 1356 L 1175 1357 L 1175 1348 Z M 1201 1355 L 1201 1356 L 1209 1356 L 1201 1355 Z M 1147 1362 L 1147 1363 L 1149 1363 L 1147 1362 Z M 1715 1372 L 1711 1375 Q 1710 1380 1715 1381 Q 1718 1382 1719 1379 L 1718 1374 Q 1719 1370 1715 1372 Z M 1033 1380 L 1030 1381 L 1032 1385 L 1034 1384 L 1033 1380 Z M 1056 1436 L 1026 1447 L 1025 1450 L 1027 1452 L 1060 1437 L 1056 1436 Z M 1701 1436 L 1702 1438 Q 1719 1443 1733 1452 Q 1735 1453 1734 1449 L 1729 1445 L 1711 1438 L 1701 1436 Z M 1622 1456 L 1623 1465 L 1617 1469 Q 1618 1471 1622 1470 L 1620 1475 L 1621 1476 L 1623 1475 L 1624 1473 Q 1623 1470 1630 1471 L 1631 1472 L 1630 1468 L 1628 1466 L 1633 1460 L 1628 1463 L 1625 1458 L 1622 1456 Z M 1091 1457 L 1060 1505 Q 1059 1509 1062 1510 L 1064 1509 L 1091 1459 L 1091 1457 Z M 1669 1457 L 1671 1464 L 1698 1510 L 1700 1509 L 1700 1505 L 1672 1460 L 1669 1457 Z M 1096 1462 Q 1080 1484 1068 1510 Q 1068 1514 1072 1516 L 1075 1513 L 1081 1496 L 1097 1464 Q 1098 1461 1096 1462 Z M 1663 1462 L 1663 1465 L 1681 1501 L 1686 1515 L 1689 1516 L 1692 1511 L 1685 1496 L 1666 1464 L 1663 1462 Z " /><path fill="rgb(0,0,0)" stroke="rgb(0,0,0)" stroke-width="1" opacity="0" d="M 1362.5 1317 L 1396.5 1317 L 1397.5 1318 L 1404.5 1318 L 1420.5 1321 L 1443.5 1329 L 1461.5 1338 L 1489 1356 Q 1487.9 1358.7 1490.5 1358 L 1504 1369.5 Q 1503.3 1371.8 1505.5 1371 L 1509.5 1376 L 1512 1377.5 L 1534 1404.5 L 1546 1423.5 L 1556 1441.5 L 1571 1480.5 L 1582 1530.5 L 1582 1543.5 L 1583 1544.5 L 1583 1555.5 L 1584 1556.5 L 1584 1594.5 L 1587 1603 Q 1563 1613.8 1535.5 1622 L 1492.5 1634 L 1481.5 1636 L 1473.5 1636 L 1472.5 1637 L 1455.5 1637 L 1454.5 1638 L 1439.5 1638 L 1438.5 1639 L 1405.5 1640 L 1404.5 1639 L 1355.5 1639 L 1354.5 1640 L 1340.5 1640 L 1339.5 1639 L 1321.5 1639 L 1320.5 1638 L 1305.5 1638 L 1304.5 1637 L 1287.5 1637 L 1286.5 1636 L 1278.5 1636 L 1267.5 1634 L 1214.5 1619 L 1172 1603 L 1172 1591.5 L 1171 1590.5 L 1171 1569.5 L 1172 1568.5 L 1173 1544.5 L 1177 1523.5 L 1178 1510.5 L 1186 1480.5 L 1197 1451.5 L 1205 1434.5 L 1225 1402.5 L 1250.5 1373 Q 1252.8 1373.8 1252 1371.5 Q 1272.7 1350.7 1299.5 1336 Q 1308.7 1334.2 1314.5 1329 L 1337.5 1321 L 1353.5 1318 L 1361.5 1318 L 1362.5 1317 Z " /></svg>